<svg width="15" height="16" viewBox="0 0 15 16" fill="none" xmlns="http://www.w3.org/2000/svg">
<path d="M7 0.516602C3.09098 0.773895 0 4.02608 0 8.0002C0 12.1423 3.35786 15.5002 7.5 15.5002C9.39113 15.5002 11.1188 14.8003 12.438 13.6453L7.15045 8.35772C7.05532 8.26472 7 8.13627 7 8.0002V0.516602Z" fill="#4964C6"/>
<path d="M13.1451 12.9382C14.3001 11.619 15 9.89132 15 8.0002C15 6.97198 14.7931 5.99209 14.4186 5.0999L8.3441 8.13717L13.1451 12.9382Z" fill="#4964C6"/>
<path d="M13.9708 4.20581C12.7472 2.12364 10.5473 0.684263 8 0.516602V7.19118L13.9708 4.20581Z" fill="#4964C6"/>
</svg>
