<svg width="24" height="25" viewBox="0 0 24 25" fill="none" xmlns="http://www.w3.org/2000/svg">
<path d="M20 8.29999H4V6.29999H20V8.29999ZM18 2.29999H6V4.29999H18V2.29999ZM22 12.3V20.3C22 20.8304 21.7893 21.3391 21.4142 21.7142C21.0391 22.0893 20.5304 22.3 20 22.3H4C3.46957 22.3 2.96086 22.0893 2.58579 21.7142C2.21071 21.3391 2 20.8304 2 20.3V12.3C2 11.7696 2.21071 11.2608 2.58579 10.8858C2.96086 10.5107 3.46957 10.3 4 10.3H20C20.5304 10.3 21.0391 10.5107 21.4142 10.8858C21.7893 11.2608 22 11.7696 22 12.3ZM16 16.3L10 13.03V19.56L16 16.3Z" fill="#4964CD"/>
</svg>
